<svg width="128" height="20" viewBox="0 0 128 20" fill="none" xmlns="http://www.w3.org/2000/svg">
<path d="M9.28671 3.0043C9.51122 2.31332 10.4888 2.31332 10.7133 3.0043L11.7829 6.2961C11.9502 6.81113 12.4301 7.15983 12.9717 7.15983H16.4329C17.1594 7.15983 17.4615 8.08954 16.8737 8.51659L14.0736 10.551C13.6354 10.8693 13.4521 11.4335 13.6195 11.9486L14.689 15.2404C14.9135 15.9314 14.1227 16.506 13.5349 16.0789L10.7347 14.0445C10.2966 13.7262 9.70338 13.7262 9.26527 14.0445L6.4651 16.0789C5.87731 16.506 5.08645 15.9314 5.31097 15.2404L6.38054 11.9486C6.54788 11.4335 6.36456 10.8693 5.92645 10.551L3.12628 8.51659C2.53849 8.08954 2.84058 7.15983 3.56712 7.15983H7.02832C7.56985 7.15983 8.0498 6.81113 8.21714 6.2961L9.28671 3.0043Z" fill="#F0F358" stroke="black" stroke-width="0.5"/>
<path d="M29.2867 3.0043C29.5112 2.31332 30.4888 2.31332 30.7133 3.0043L31.7829 6.2961C31.9502 6.81113 32.4301 7.15983 32.9717 7.15983H36.4329C37.1594 7.15983 37.4615 8.08954 36.8737 8.51659L34.0736 10.551C33.6354 10.8693 33.4521 11.4335 33.6195 11.9486L34.689 15.2404C34.9135 15.9314 34.1227 16.506 33.5349 16.0789L30.7347 14.0445C30.2966 13.7262 29.7034 13.7262 29.2653 14.0445L26.4651 16.0789C25.8773 16.506 25.0865 15.9314 25.311 15.2404L26.3805 11.9486C26.5479 11.4335 26.3646 10.8693 25.9264 10.551L23.1263 8.51659C22.5385 8.08954 22.8406 7.15983 23.5671 7.15983H27.0283C27.5699 7.15983 28.0498 6.81113 28.2171 6.2961L29.2867 3.0043Z" fill="#F0F358" stroke="black" stroke-width="0.5"/>
<path d="M50.7133 3.0043L51.7829 6.2961C51.9502 6.81113 52.4302 7.15983 52.9717 7.15983H56.4329C57.1594 7.15983 57.4615 8.08954 56.8737 8.51659L54.0736 10.551C53.6354 10.8693 53.4521 11.4335 53.6195 11.9486L54.689 15.2404C54.9135 15.9314 54.1227 16.506 53.5349 16.0789L50.7347 14.0445C50.2966 13.7262 49.7034 13.7262 49.2653 14.0445L46.4651 16.0789C45.8773 16.506 45.0865 15.9314 45.311 15.2404L46.3805 11.9486C46.5479 11.4335 46.3646 10.8693 45.9264 10.551L43.1263 8.51659C42.5385 8.08954 42.8406 7.15983 43.5671 7.15983H47.0283C47.5699 7.15983 48.0498 6.81113 48.2171 6.2961L49.2867 3.0043C49.5112 2.31332 50.4888 2.31332 50.7133 3.0043Z" fill="#F0F358" stroke="black" stroke-width="0.5"/>
<path d="M69.2867 3.0043C69.5112 2.31332 70.4888 2.31332 70.7133 3.0043L71.7829 6.2961C71.9502 6.81113 72.4301 7.15983 72.9717 7.15983H76.4329C77.1594 7.15983 77.4615 8.08954 76.8737 8.51659L74.0736 10.551C73.6354 10.8693 73.4521 11.4335 73.6195 11.9486L74.689 15.2404C74.9135 15.9314 74.1227 16.506 73.5349 16.0789L70.7347 14.0445C70.2966 13.7262 69.7034 13.7262 69.2653 14.0445L66.4651 16.0789C65.8773 16.506 65.0865 15.9314 65.311 15.2404L66.3805 11.9486C66.5479 11.4335 66.3646 10.8693 65.9264 10.551L63.1263 8.51659C62.5385 8.08954 62.8406 7.15983 63.5671 7.15983H67.0283C67.5699 7.15983 68.0498 6.81113 68.2171 6.2961L69.2867 3.0043Z" fill="#F0F358" stroke="black" stroke-width="0.5"/>
<path d="M89.2867 3.0043C89.5112 2.31332 90.4888 2.31332 90.7133 3.0043L91.7829 6.2961C91.9502 6.81113 92.4301 7.15983 92.9717 7.15983H96.4329C97.1594 7.15983 97.4615 8.08954 96.8737 8.51659L94.0736 10.551C93.6354 10.8693 93.4521 11.4335 93.6195 11.9486L94.689 15.2404C94.9135 15.9314 94.1227 16.506 93.5349 16.0789L90.7347 14.0445C90.2966 13.7262 89.7034 13.7262 89.2653 14.0445L86.4651 16.0789C85.8773 16.506 85.0865 15.9314 85.311 15.2404L86.3805 11.9486C86.5479 11.4335 86.3646 10.8693 85.9264 10.551L83.1263 8.51659C82.5385 8.08954 82.8406 7.15983 83.5671 7.15983H87.0283C87.5699 7.15983 88.0498 6.81113 88.2171 6.2961L89.2867 3.0043Z" fill="white" stroke="black" stroke-width="0.5"/>
<path d="M112.063 16V9.28C112.063 8.734 112.105 7.852 112.147 7.292H112.077C111.825 7.81 111.545 8.356 111.251 8.888L109.235 11.982H114.891V13.242H107.611V12.15L111.699 5.696H113.575V16H112.063ZM117.501 16.196C116.885 16.196 116.423 15.72 116.423 15.062C116.423 14.39 116.885 13.928 117.501 13.928C118.103 13.928 118.579 14.39 118.579 15.062C118.579 15.72 118.103 16.196 117.501 16.196ZM123.675 16.196C121.645 16.196 120.343 14.39 120.343 10.806C120.343 7.25 121.645 5.514 123.675 5.514C125.691 5.514 127.007 7.25 127.007 10.806C127.007 14.39 125.691 16.196 123.675 16.196ZM123.675 14.908C124.725 14.908 125.453 13.788 125.453 10.806C125.453 7.866 124.725 6.774 123.675 6.774C122.625 6.774 121.883 7.866 121.883 10.806C121.883 13.788 122.625 14.908 123.675 14.908Z" fill="black"/>
</svg>
